<?xml version="1.0" encoding="iso-8859-1"?>
<!-- Generator: Adobe Illustrator 19.0.0, SVG Export Plug-In . SVG Version: 6.00 Build 0)  -->
<svg version="1.1" id="Capa_1" xmlns="http://www.w3.org/2000/svg" xmlns:xlink="http://www.w3.org/1999/xlink" x="0px" y="0px"
	 viewBox="0 0 512 512" style="enable-background:new 0 0 512 512;" xml:space="preserve">
<path style="fill:#F2721C;" d="M434.512,310.732c-0.576-8.797-10.02-14.111-17.838-10.034c-6.798,3.547-28.117,12.749-44.912,12.749
	c-12.919,0-21.522-4.273-21.522-25.127c0-57.17,76.778-102.84,8.317-188.418c-7.853-9.813-23.683-2.694-21.581,9.677
	c0.043,0.258,4.034,26.153-8.07,40.489c-5.678,6.723-14.283,9.992-26.305,9.992c-41.638,0-38.739-104.87,13.766-137.424
	c11.674-7.237,4.206-25.335-9.134-22.295c-3.364,0.76-82.898,19.608-125.445,102.855c-31.593,61.81-14.482,104.442-1.988,135.572
	c11.166,27.819,16.261,40.516-8.747,57.83c-9.419,6.523-16.71,5.847-16.71,5.847c-23.391,0-45.548-34.384-52.105-47.617
	c-5.326-10.821-21.537-8.126-23.075,3.838c-0.66,5.144-15.433,126.793,49.127,200.177c35.57,40.429,85.057,54.811,139.297,53.008
	c50.141-1.68,90.152-18.638,118.923-50.402C439.86,402.546,434.755,314.451,434.512,310.732z"/>
<path style="fill:#EA5513;" d="M126.537,288.304c-11.47-11.064-20.504-25.813-24.301-33.476
	c-5.326-10.821-21.537-8.126-23.075,3.838c-0.66,5.144-15.433,126.793,49.127,200.177c21.936,24.932,50.288,41.166,84.61,48.548
	C141.084,465.085,120.659,370.24,126.537,288.304z"/>
<path style="fill:#F2721C;" d="M106.223,128.449c-0.837-0.524-1.899-0.524-2.736,0c-28.184,17.674-28.269,58.896,0,76.623
	c0.823,0.516,1.889,0.532,2.736,0C134.407,187.397,134.489,146.176,106.223,128.449z"/>
<g>
	<path style="fill:#EA5513;" d="M117.196,138.186c-3.078-3.785-6.766-7.098-10.973-9.737c-0.837-0.524-1.899-0.524-2.736,0
		c-28.184,17.674-28.269,58.896,0,76.623c0.823,0.516,1.889,0.532,2.736,0c4.208-2.639,7.896-5.953,10.974-9.738
		C103.58,178.699,103.556,154.848,117.196,138.186z"/>
	<path style="fill:#EA5513;" d="M307.232,0.342c-3.364,0.76-82.898,19.608-125.445,102.855
		c-42.204,82.57,2.579,131.397,6.909,162.657l0.005-0.003c1.592,11.476-2.513,20.268-17.649,30.747
		c-9.092,6.297-17.312,7.235-25.976,4.126v0.011c0,0,30.57,29.387,61.455,9.232c30.606-19.973,21.764-50.607,17.038-64.453
		l0.011-0.008c-11.281-29.91-21.149-69.426,6.626-123.766c16.49-32.265,38.536-54.851,59.551-70.464
		c6.804-11.784,15.722-21.889,26.61-28.64C328.039,15.4,320.572-2.698,307.232,0.342z"/>
</g>
<g>
</g>
<g>
</g>
<g>
</g>
<g>
</g>
<g>
</g>
<g>
</g>
<g>
</g>
<g>
</g>
<g>
</g>
<g>
</g>
<g>
</g>
<g>
</g>
<g>
</g>
<g>
</g>
<g>
</g>
</svg>
